<svg class="svg-icon" style="width:1.06640625em;height:1em;vertical-align:middle;fill:currentColor;overflow:hidden" viewBox="0 0 24 22.505" xmlns="http://www.w3.org/2000/svg" width="24" height="22.505"><path d="M4.001 18.406h16.003a.799.799 0 0 0 0-1.601H4.001a.799.799 0 0 0 0 1.601z"/><path d="M23.962 13.327 21.086 1.231A1.601 1.601 0 0 0 19.531 0H4.459a1.601 1.601 0 0 0-1.558 1.231L.043 13.327a1.469 1.469 0 0 0-.043.37v6.307a1.601 1.601 0 0 0 1.601 1.601h20.803a1.601 1.601 0 0 0 1.601-1.601v-6.305a1.589 1.589 0 0 0-.043-.37zM19.531 1.601l2.851 12.002h-9.626a.743.743 0 0 0 .048-.23v-2.172a.806.806 0 0 0-.053-.271c2.7-.245 4.855-1.795 4.855-3.847 0-2.038-2.126-3.581-4.8-3.84V1.601h6.727zM12.005 4.8c2.266 0 4.001 1.116 4.001 2.285S14.268 9.37 12.005 9.37c-2.266 0-4.001-1.116-4.001-2.285S9.742 4.8 12.005 4.8zM4.462 1.601h6.744v1.644c-2.676.259-4.8 1.802-4.8 3.84 0 2.052 2.155 3.602 4.855 3.847a.806.806 0 0 0-.053.271v2.172c0 .082.024.156.046.23H1.625L4.462 1.601zm17.947 18.403H1.601v-4.8h20.803v4.8z"/></svg>